<mxfile host="65bd71144e">
    <diagram id="rZMq07sny35mMnmNYbOe" name="Page-1">
        <mxGraphModel dx="994" dy="491" grid="1" gridSize="10" guides="1" tooltips="1" connect="1" arrows="1" fold="1" page="1" pageScale="1" pageWidth="850" pageHeight="1100" math="0" shadow="0">
            <root>
                <mxCell id="0"/>
                <mxCell id="1" parent="0"/>
                <mxCell id="22" value="&lt;font face=&quot;Times New Roman&quot;&gt;Utente&lt;/font&gt;" style="rounded=0;whiteSpace=wrap;html=1;" parent="1" vertex="1">
                    <mxGeometry x="170" y="120" width="120" height="60" as="geometry"/>
                </mxCell>
                <mxCell id="23" value="&lt;font face=&quot;Times New Roman&quot;&gt;Possiede&lt;/font&gt;" style="rhombus;whiteSpace=wrap;html=1;" parent="1" vertex="1">
                    <mxGeometry x="190" y="260" width="80" height="80" as="geometry"/>
                </mxCell>
                <mxCell id="24" value="&lt;font face=&quot;Times New Roman&quot;&gt;Conto&lt;/font&gt;" style="rounded=0;whiteSpace=wrap;html=1;" parent="1" vertex="1">
                    <mxGeometry x="350" y="270" width="120" height="60" as="geometry"/>
                </mxCell>
                <mxCell id="25" value="&lt;font face=&quot;Times New Roman&quot;&gt;Trasferimento&lt;/font&gt;" style="rhombus;whiteSpace=wrap;html=1;" parent="1" vertex="1">
                    <mxGeometry x="503" y="155" width="90" height="90" as="geometry"/>
                </mxCell>
                <mxCell id="27" value="" style="endArrow=none;html=1;" parent="1" source="23" target="22" edge="1">
                    <mxGeometry width="50" height="50" relative="1" as="geometry">
                        <mxPoint x="260" y="270" as="sourcePoint"/>
                        <mxPoint x="310" y="220" as="targetPoint"/>
                    </mxGeometry>
                </mxCell>
                <mxCell id="28" value="" style="endArrow=none;html=1;" parent="1" source="23" target="24" edge="1">
                    <mxGeometry width="50" height="50" relative="1" as="geometry">
                        <mxPoint x="350" y="270" as="sourcePoint"/>
                        <mxPoint x="400" y="220" as="targetPoint"/>
                    </mxGeometry>
                </mxCell>
                <mxCell id="29" value="" style="endArrow=none;html=1;edgeStyle=orthogonalEdgeStyle;" parent="1" source="24" target="25" edge="1">
                    <mxGeometry width="50" height="50" relative="1" as="geometry">
                        <mxPoint x="595" y="330" as="sourcePoint"/>
                        <mxPoint x="645" y="280" as="targetPoint"/>
                    </mxGeometry>
                </mxCell>
                <mxCell id="30" value="" style="endArrow=none;html=1;edgeStyle=orthogonalEdgeStyle;" parent="1" source="24" target="25" edge="1">
                    <mxGeometry width="50" height="50" relative="1" as="geometry">
                        <mxPoint x="450" y="230" as="sourcePoint"/>
                        <mxPoint x="500" y="180" as="targetPoint"/>
                        <Array as="points">
                            <mxPoint x="410" y="200"/>
                        </Array>
                    </mxGeometry>
                </mxCell>
                <mxCell id="35" value="" style="endArrow=oval;html=1;fontSize=12;endFill=0;endSize=10;verticalAlign=top;exitX=1;exitY=0.25;exitDx=0;exitDy=0;" parent="1" source="22" edge="1">
                    <mxGeometry x="-1" relative="1" as="geometry">
                        <mxPoint x="260" y="290" as="sourcePoint"/>
                        <mxPoint x="320" y="135" as="targetPoint"/>
                    </mxGeometry>
                </mxCell>
                <mxCell id="36" value="" style="endArrow=oval;html=1;fontSize=12;endFill=0;endSize=10;verticalAlign=top;exitX=1;exitY=0.5;exitDx=0;exitDy=0;" parent="1" source="22" edge="1">
                    <mxGeometry x="-1" relative="1" as="geometry">
                        <mxPoint x="300" y="145" as="sourcePoint"/>
                        <mxPoint x="320" y="150" as="targetPoint"/>
                    </mxGeometry>
                </mxCell>
                <mxCell id="37" value="" style="endArrow=oval;html=1;fontSize=12;endFill=0;endSize=10;verticalAlign=top;exitX=1;exitY=0.75;exitDx=0;exitDy=0;" parent="1" source="22" edge="1">
                    <mxGeometry x="-1" relative="1" as="geometry">
                        <mxPoint x="310" y="155" as="sourcePoint"/>
                        <mxPoint x="320" y="165" as="targetPoint"/>
                    </mxGeometry>
                </mxCell>
                <mxCell id="39" value="" style="endArrow=oval;html=1;fontSize=12;endFill=1;endSize=10;verticalAlign=top;exitX=0.75;exitY=0;exitDx=0;exitDy=0;" parent="1" source="22" edge="1">
                    <mxGeometry x="-1" relative="1" as="geometry">
                        <mxPoint x="230" y="90" as="sourcePoint"/>
                        <mxPoint x="260" y="90" as="targetPoint"/>
                    </mxGeometry>
                </mxCell>
                <mxCell id="40" value="&lt;font face=&quot;Garamond&quot;&gt;ID&lt;/font&gt;" style="text;html=1;align=center;verticalAlign=middle;resizable=0;points=[];autosize=1;strokeColor=none;fillColor=none;" parent="1" vertex="1">
                    <mxGeometry x="260" y="80" width="30" height="20" as="geometry"/>
                </mxCell>
                <mxCell id="41" value="&lt;font face=&quot;Times New Roman&quot;&gt;username&lt;/font&gt;" style="text;html=1;align=center;verticalAlign=middle;resizable=0;points=[];autosize=1;strokeColor=none;fillColor=none;" parent="1" vertex="1">
                    <mxGeometry x="324" y="124" width="60" height="20" as="geometry"/>
                </mxCell>
                <mxCell id="43" value="&lt;font face=&quot;Times New Roman&quot;&gt;nome&lt;/font&gt;" style="text;html=1;align=center;verticalAlign=middle;resizable=0;points=[];autosize=1;strokeColor=none;fillColor=none;" parent="1" vertex="1">
                    <mxGeometry x="322" y="140" width="40" height="20" as="geometry"/>
                </mxCell>
                <mxCell id="44" value="&lt;font face=&quot;Times New Roman&quot;&gt;cognome&lt;/font&gt;" style="text;html=1;align=center;verticalAlign=middle;resizable=0;points=[];autosize=1;strokeColor=none;fillColor=none;" parent="1" vertex="1">
                    <mxGeometry x="322" y="155" width="60" height="20" as="geometry"/>
                </mxCell>
                <mxCell id="45" value="" style="endArrow=oval;html=1;fontSize=12;endFill=1;endSize=10;verticalAlign=top;exitX=0.25;exitY=1;exitDx=0;exitDy=0;" parent="1" source="24" edge="1">
                    <mxGeometry x="-1" relative="1" as="geometry">
                        <mxPoint x="450" y="350" as="sourcePoint"/>
                        <mxPoint x="380" y="360" as="targetPoint"/>
                    </mxGeometry>
                </mxCell>
                <mxCell id="46" value="" style="endArrow=oval;html=1;fontSize=12;endFill=0;endSize=10;verticalAlign=top;exitX=0.75;exitY=1;exitDx=0;exitDy=0;" parent="1" source="24" edge="1">
                    <mxGeometry x="-1" relative="1" as="geometry">
                        <mxPoint x="360" y="340" as="sourcePoint"/>
                        <mxPoint x="440" y="360" as="targetPoint"/>
                    </mxGeometry>
                </mxCell>
                <mxCell id="47" value="&lt;font face=&quot;Times New Roman&quot;&gt;codice&lt;/font&gt;" style="text;html=1;align=center;verticalAlign=middle;resizable=0;points=[];autosize=1;strokeColor=none;fillColor=none;endfill=1" parent="1" vertex="1">
                    <mxGeometry x="380" y="350" width="50" height="20" as="geometry"/>
                </mxCell>
                <mxCell id="48" value="&lt;font face=&quot;Times New Roman&quot;&gt;saldo&lt;/font&gt;" style="text;html=1;align=center;verticalAlign=middle;resizable=0;points=[];autosize=1;strokeColor=none;fillColor=none;" parent="1" vertex="1">
                    <mxGeometry x="443" y="350" width="40" height="20" as="geometry"/>
                </mxCell>
                <mxCell id="49" value="" style="rounded=0;whiteSpace=wrap;html=1;strokeColor=#FFFFFF;fillColor=none;" parent="1" vertex="1">
                    <mxGeometry x="353" y="273" width="114" height="54" as="geometry"/>
                </mxCell>
                <mxCell id="50" value="&lt;font face=&quot;Times New Roman&quot;&gt;0:n&lt;/font&gt;" style="text;html=1;align=center;verticalAlign=middle;resizable=0;points=[];autosize=1;strokeColor=none;fillColor=none;" parent="1" vertex="1">
                    <mxGeometry x="228" y="179" width="30" height="20" as="geometry"/>
                </mxCell>
                <mxCell id="51" value="&lt;font face=&quot;Times New Roman&quot;&gt;1:1&lt;/font&gt;" style="text;html=1;align=center;verticalAlign=middle;resizable=0;points=[];autosize=1;strokeColor=none;fillColor=none;" parent="1" vertex="1">
                    <mxGeometry x="325" y="282" width="30" height="20" as="geometry"/>
                </mxCell>
                <mxCell id="52" value="&lt;font face=&quot;Times New Roman&quot;&gt;1:1&lt;/font&gt;" style="text;html=1;align=center;verticalAlign=middle;resizable=0;points=[];autosize=1;strokeColor=none;fillColor=none;" parent="1" vertex="1">
                    <mxGeometry x="408" y="252" width="30" height="20" as="geometry"/>
                </mxCell>
                <mxCell id="53" value="&lt;font face=&quot;Times New Roman&quot;&gt;1:1&lt;/font&gt;" style="text;html=1;align=center;verticalAlign=middle;resizable=0;points=[];autosize=1;strokeColor=none;fillColor=none;" parent="1" vertex="1">
                    <mxGeometry x="466" y="283" width="30" height="20" as="geometry"/>
                </mxCell>
                <mxCell id="54" value="&lt;font face=&quot;Times New Roman&quot;&gt;riceve&lt;/font&gt;" style="text;html=1;align=center;verticalAlign=middle;resizable=0;points=[];autosize=1;strokeColor=none;fillColor=none;" parent="1" vertex="1">
                    <mxGeometry x="438" y="181" width="40" height="20" as="geometry"/>
                </mxCell>
                <mxCell id="55" value="&lt;font face=&quot;Times New Roman&quot;&gt;esegue&lt;/font&gt;" style="text;html=1;align=center;verticalAlign=middle;resizable=0;points=[];autosize=1;strokeColor=none;fillColor=none;" parent="1" vertex="1">
                    <mxGeometry x="546" y="261" width="50" height="20" as="geometry"/>
                </mxCell>
                <mxCell id="57" value="" style="endArrow=oval;html=1;fontSize=12;endFill=1;endSize=10;verticalAlign=top;exitX=1;exitY=0;exitDx=0;exitDy=0;" edge="1" parent="1" source="25">
                    <mxGeometry x="-1" relative="1" as="geometry">
                        <mxPoint x="570.5" y="178.5" as="sourcePoint"/>
                        <mxPoint x="620" y="178" as="targetPoint"/>
                    </mxGeometry>
                </mxCell>
                <mxCell id="59" value="" style="endArrow=oval;html=1;fontSize=12;endFill=0;endSize=10;verticalAlign=top;exitX=1;exitY=0.5;exitDx=0;exitDy=0;" edge="1" parent="1" source="25">
                    <mxGeometry x="-1" relative="1" as="geometry">
                        <mxPoint x="730" y="169" as="sourcePoint"/>
                        <mxPoint x="620" y="200" as="targetPoint"/>
                    </mxGeometry>
                </mxCell>
                <mxCell id="60" value="" style="endArrow=oval;html=1;fontSize=12;endFill=0;endSize=10;verticalAlign=top;exitX=1;exitY=1;exitDx=0;exitDy=0;" edge="1" parent="1" source="25">
                    <mxGeometry x="-1" relative="1" as="geometry">
                        <mxPoint x="650" y="119" as="sourcePoint"/>
                        <mxPoint x="620" y="223" as="targetPoint"/>
                    </mxGeometry>
                </mxCell>
                <mxCell id="61" value="ID" style="text;html=1;align=center;verticalAlign=middle;resizable=0;points=[];autosize=1;strokeColor=none;fillColor=none;" vertex="1" parent="1">
                    <mxGeometry x="620" y="168" width="30" height="20" as="geometry"/>
                </mxCell>
                <mxCell id="62" value="data" style="text;html=1;align=center;verticalAlign=middle;resizable=0;points=[];autosize=1;strokeColor=none;fillColor=none;" vertex="1" parent="1">
                    <mxGeometry x="621" y="189" width="40" height="20" as="geometry"/>
                </mxCell>
                <mxCell id="63" value="importo" style="text;html=1;align=center;verticalAlign=middle;resizable=0;points=[];autosize=1;strokeColor=none;fillColor=none;" vertex="1" parent="1">
                    <mxGeometry x="620" y="213" width="60" height="20" as="geometry"/>
                </mxCell>
            </root>
        </mxGraphModel>
    </diagram>
</mxfile>